<?xml version="1.0" encoding="utf-8"?>
<!-- Generator: Adobe Illustrator 16.0.0, SVG Export Plug-In . SVG Version: 6.00 Build 0)  -->
<!DOCTYPE svg PUBLIC "-//W3C//DTD SVG 1.1//EN" "http://www.w3.org/Graphics/SVG/1.1/DTD/svg11.dtd">
<svg version="1.1" id="Layer_1" xmlns="http://www.w3.org/2000/svg" xmlns:xlink="http://www.w3.org/1999/xlink" x="0px" y="0px"
	 width="41.313px" height="41.329px" viewBox="0 0 41.313 41.329" enable-background="new 0 0 41.313 41.329" xml:space="preserve">
<g>
	<defs>
		<rect id="SVGID_1_" x="-4.483" y="-4.482" width="50.294" height="50.294"/>
	</defs>
	<clipPath id="SVGID_2_">
		<use xlink:href="#SVGID_1_"  overflow="visible"/>
	</clipPath>
	<path clip-path="url(#SVGID_2_)" fill="#FFFFFF" d="M20.664,41.329c11.413,0,20.664-9.252,20.664-20.665
		C41.328,9.252,32.077,0,20.664,0S0,9.252,0,20.664C0,32.077,9.251,41.329,20.664,41.329"/>
	<circle clip-path="url(#SVGID_2_)" fill="none" stroke="#C2996B" stroke-width="0.214" cx="20.665" cy="20.665" r="20.665"/>
</g>
<text transform="matrix(1 0 0 1 5.4756 17.4355)"><tspan x="0" y="0" fill="#793D27" font-family="'KozGoPr6N-Regular-83pv-RKSJ-H'" font-size="7.56">藍芽音樂</tspan><tspan x="30.24" y="0" fill="#793D27" font-family="'DFHeiStd-W3'" font-size="7.56" letter-spacing="-2"> </tspan><tspan x="29.378" y="0" fill="#793D27" font-family="'DFHeiStd-W3'" font-size="7.56"> </tspan></text>
<text transform="matrix(1 0 0 1 5.4756 29.1992)" fill="#793D27" font-family="'KozGoPr6N-Regular-83pv-RKSJ-H'" font-size="7.56">串接播放</text>
<line fill="none" stroke="#C2996B" stroke-width="0.25" x1="1.99" y1="20.664" x2="39.135" y2="20.664"/>
<g>
	<defs>
		<rect id="SVGID_5_" x="-4.483" y="-4.482" width="50.294" height="50.294"/>
	</defs>
	<clipPath id="SVGID_4_">
		<use xlink:href="#SVGID_5_"  overflow="visible"/>
	</clipPath>
	<g opacity="0.71" clip-path="url(#SVGID_4_)">
		<g>
			<defs>
				<rect id="SVGID_7_" x="-5.184" y="3.551" width="51.696" height="6.427"/>
			</defs>
			<clipPath id="SVGID_6_">
				<use xlink:href="#SVGID_7_"  overflow="visible"/>
			</clipPath>
			<polygon clip-path="url(#SVGID_6_)" fill="#00A1E9" points="13.548,7.941 13.964,7.525 13.548,7.11 			"/>
			<polygon clip-path="url(#SVGID_6_)" fill="#00A1E9" points="13.548,6.418 13.964,6.002 13.548,5.588 			"/>
			<path clip-path="url(#SVGID_6_)" fill="#00A1E9" d="M14.388,7.525h-0.002H14.388L13.25,8.666V8.24V7.142l-0.561,0.56L12.477,7.49
				l0.725-0.727l-0.717-0.718l0.212-0.212l0.553,0.552V5.287V4.863l0.926,0.928V5.79l0.213,0.213l-0.213,0.212l-0.549,0.549
				L14.388,7.525z M14.958,5.79c-0.136-0.694-0.814-1.239-1.511-1.239c-0.729,0-1.396,0.499-1.54,1.239
				c-0.129,0.659-0.113,1.299,0,1.956c0.128,0.74,0.807,1.232,1.525,1.232c0.722,0,1.394-0.486,1.525-1.232
				C15.075,7.074,15.083,6.434,14.958,5.79"/>
			<path clip-path="url(#SVGID_6_)" fill="#00A1E9" d="M28.443,5.5v0.943c0.142-0.188,0.31-0.279,0.506-0.279
				c0.213,0,0.36,0.068,0.441,0.202c0.081,0.136,0.122,0.337,0.122,0.606v1.09h-0.439v-0.98c0-0.215-0.017-0.357-0.053-0.432
				c-0.034-0.074-0.106-0.111-0.216-0.111c-0.24,0-0.361,0.198-0.361,0.594v0.93h-0.438V5.5H28.443z M27.795,6.207v0.391h-0.297
				v0.746c0,0.15,0.008,0.246,0.023,0.289s0.048,0.065,0.095,0.065c0.042,0,0.102-0.017,0.177-0.049l0.038,0.381
				c-0.101,0.05-0.217,0.073-0.346,0.073c-0.181,0-0.298-0.051-0.351-0.153s-0.078-0.284-0.078-0.544V6.598h-0.2V6.207h0.2V5.838
				l0.441-0.285v0.654H27.795z M25.53,7.133c0,0.17,0.035,0.307,0.106,0.412c0.069,0.105,0.17,0.157,0.297,0.157
				s0.226-0.053,0.297-0.159c0.07-0.105,0.105-0.242,0.105-0.412S26.3,6.823,26.23,6.721c-0.071-0.104-0.17-0.155-0.297-0.155
				s-0.228,0.052-0.297,0.157C25.565,6.827,25.53,6.963,25.53,7.133 M25.081,7.109c0-0.264,0.078-0.485,0.234-0.669
				c0.156-0.185,0.362-0.276,0.618-0.276c0.253,0,0.458,0.09,0.616,0.27c0.158,0.182,0.236,0.412,0.236,0.695
				c0,0.28-0.08,0.514-0.237,0.699c-0.159,0.184-0.363,0.275-0.613,0.275c-0.259,0-0.466-0.086-0.621-0.258
				C25.159,7.672,25.081,7.428,25.081,7.109 M23.673,7.133c0,0.17,0.034,0.307,0.105,0.412s0.17,0.157,0.297,0.157
				s0.227-0.053,0.297-0.159c0.071-0.105,0.106-0.242,0.106-0.412s-0.035-0.308-0.106-0.41c-0.07-0.104-0.17-0.155-0.297-0.155
				s-0.226,0.052-0.297,0.157C23.708,6.827,23.673,6.963,23.673,7.133 M23.225,7.109c0-0.264,0.078-0.485,0.232-0.669
				c0.157-0.185,0.363-0.276,0.618-0.276c0.253,0,0.458,0.09,0.616,0.27c0.159,0.182,0.238,0.412,0.238,0.695
				c0,0.28-0.08,0.514-0.239,0.699c-0.159,0.184-0.363,0.275-0.612,0.275c-0.259,0-0.467-0.086-0.622-0.258
				C23.302,7.672,23.225,7.428,23.225,7.109 M23.114,6.207v0.391h-0.298v0.746c0,0.15,0.008,0.246,0.024,0.289
				c0.016,0.043,0.048,0.065,0.095,0.065c0.042,0,0.1-0.017,0.177-0.049L23.15,8.03c-0.102,0.05-0.217,0.073-0.346,0.073
				c-0.183,0-0.298-0.051-0.352-0.153c-0.052-0.103-0.078-0.284-0.078-0.544V6.598h-0.199V6.207h0.199V5.838l0.441-0.285v0.654
				H23.114z M21.656,6.975c-0.008-0.291-0.117-0.436-0.327-0.436c-0.218,0-0.326,0.145-0.326,0.436H21.656z M21.63,7.471
				l0.436,0.082c-0.114,0.369-0.354,0.551-0.718,0.551c-0.284,0-0.489-0.092-0.615-0.277s-0.188-0.411-0.188-0.677
				c0-0.292,0.068-0.53,0.205-0.712s0.321-0.273,0.554-0.273c0.523,0,0.787,0.37,0.787,1.111h-1.098
				c0.015,0.309,0.135,0.462,0.36,0.462C21.493,7.737,21.584,7.649,21.63,7.471 M19.904,8.062V7.783
				c-0.128,0.215-0.312,0.32-0.548,0.32c-0.366,0-0.548-0.241-0.548-0.725V6.207h0.436v0.85c0,0.271,0.018,0.451,0.055,0.539
				c0.035,0.09,0.108,0.135,0.221,0.135c0.138,0,0.23-0.049,0.279-0.145c0.051-0.096,0.074-0.295,0.074-0.598V6.207h0.439v1.855
				H19.904z M18.024,5.5h0.437v2.562h-0.437V5.5z M16.281,6.945v0.686h0.426c0.213,0,0.358-0.021,0.435-0.064
				c0.077-0.043,0.114-0.133,0.114-0.273c0-0.133-0.041-0.224-0.123-0.273c-0.082-0.049-0.241-0.074-0.479-0.074H16.281z
				 M16.281,5.926V6.52h0.303c0.238,0,0.396-0.018,0.473-0.055c0.078-0.037,0.115-0.119,0.115-0.248
				c0-0.119-0.033-0.197-0.102-0.234s-0.244-0.057-0.525-0.057H16.281z M15.82,5.5h0.911c0.366,0,0.606,0.062,0.72,0.189
				c0.113,0.126,0.17,0.277,0.17,0.455c0,0.263-0.107,0.447-0.322,0.556c0.289,0.095,0.435,0.302,0.435,0.62
				c0,0.184-0.045,0.338-0.136,0.46c-0.09,0.123-0.191,0.201-0.307,0.233c-0.115,0.031-0.347,0.049-0.693,0.049H15.82V5.5z"/>
		</g>
	</g>
</g>
<rect x="-4.483" y="-4.483" fill="none" width="50.294" height="50.294"/>
</svg>
